#N canvas 396 78 480 517 10;
#X obj 57 395 readsf~;
#X obj 57 423 dac~;
#X obj 148 294 readsf~;
#X obj 148 322 dac~;
#X obj 57 336 trigger a b;
#X obj 148 235 trigger a b;
#X msg 148 207 1;
#X obj 103 17 notein;
#X obj 103 116 i;
#X obj 57 280 t b;
#X obj 148 180 t b;
#X msg 57 306 1;
#X obj 103 79 route 67;
#X obj 119 52 moses 1;
#X obj 103 148 moses 45;
#X msg 164 265 open sampler/Bassdrum_Glitchkit_PL_13.wav;
#X msg 73 363 open sampler/Bassdrum_Glitchkit_PL_05.wav;
#X connect 0 0 1 0;
#X connect 0 0 1 1;
#X connect 2 0 3 0;
#X connect 2 0 3 1;
#X connect 4 0 0 0;
#X connect 4 1 16 0;
#X connect 5 0 2 0;
#X connect 5 1 15 0;
#X connect 6 0 5 0;
#X connect 7 0 12 0;
#X connect 7 1 13 0;
#X connect 8 0 14 0;
#X connect 9 0 11 0;
#X connect 10 0 6 0;
#X connect 11 0 4 0;
#X connect 12 0 8 0;
#X connect 13 1 8 1;
#X connect 14 0 9 0;
#X connect 14 1 10 0;
#X connect 15 0 2 0;
#X connect 16 0 0 0;
